<svg xmlns="http://www.w3.org/2000/svg" xmlns:xlink="http://www.w3.org/1999/xlink" version="1.1" width="256" height="256" viewBox="0 0 256 256" xml:space="preserve">

<defs>
</defs>
<g style="stroke: none; stroke-width: 0; stroke-dasharray: none; stroke-linecap: butt; stroke-linejoin: miter; stroke-miterlimit: 10; fill: none; fill-rule: nonzero; opacity: 1;" transform="translate(1.4065934065934016 1.4065934065934016) scale(2.81 2.81)" >
	<linearGradient id="SVGID_5" gradientUnits="userSpaceOnUse" x1="45.0003" y1="78.7946" x2="45.0003" y2="12.0418">
<stop offset="0%" style="stop-color:rgb(0,94,208);stop-opacity: 1"/>
<stop offset="100%" style="stop-color:rgb(48,186,255);stop-opacity: 1"/>
</linearGradient>
<path d="M 31.502 21.621 c -12.891 7.442 -17.324 23.985 -9.881 36.877 c 4.995 8.651 14.087 13.493 23.425 13.493 c 4.576 0 9.212 -1.164 13.452 -3.611 c 12.892 -7.443 17.324 -23.986 9.882 -36.878 C 60.937 18.611 44.393 14.178 31.502 21.621 z M 56.498 64.915 c -10.98 6.341 -25.073 2.564 -31.413 -8.417 c -6.34 -10.981 -2.564 -25.073 8.417 -31.413 c 3.613 -2.085 7.561 -3.076 11.459 -3.076 c 7.954 0 15.7 4.125 19.954 11.493 C 71.255 44.483 67.479 58.575 56.498 64.915 z" style="stroke: none; stroke-width: 1; stroke-dasharray: none; stroke-linecap: butt; stroke-linejoin: miter; stroke-miterlimit: 10; fill: url(#SVGID_5); fill-rule: nonzero; opacity: 1;" transform=" matrix(1 0 0 1 0 0) " stroke-linecap="round" />
	<linearGradient id="SVGID_6" gradientUnits="userSpaceOnUse" x1="45" y1="78.7946" x2="45" y2="12.0418">
<stop offset="0%" style="stop-color:rgb(0,94,208);stop-opacity: 1"/>
<stop offset="100%" style="stop-color:rgb(48,186,255);stop-opacity: 1"/>
</linearGradient>
<path d="M 81.253 31.093 c -1.78 0 -3.415 -1.024 -4.268 -2.673 c -0.25 -0.482 -0.511 -0.961 -0.785 -1.435 c -0.274 -0.475 -0.558 -0.94 -0.849 -1.395 c -1.002 -1.564 -1.071 -3.492 -0.181 -5.034 c 2.41 -4.177 0.974 -9.537 -3.202 -11.948 l -8.938 -5.16 c -2.022 -1.168 -4.379 -1.479 -6.637 -0.874 c -2.247 0.603 -4.127 2.04 -5.296 4.05 c -0.006 0.01 -0.012 0.019 -0.018 0.029 c -0.89 1.542 -2.537 2.454 -4.339 2.358 c -1.161 -0.056 -2.337 -0.057 -3.496 0 c -1.78 0.094 -3.438 -0.818 -4.329 -2.361 c -1.168 -2.023 -3.054 -3.471 -5.311 -4.076 c -2.258 -0.604 -4.614 -0.294 -6.637 0.874 l -8.937 5.16 c -2.023 1.168 -3.471 3.055 -4.076 5.312 c -0.604 2.257 -0.294 4.615 0.875 6.639 c 0.89 1.542 0.844 3.429 -0.121 4.928 c -0.626 0.973 -1.214 1.992 -1.748 3.027 c -0.818 1.591 -2.432 2.579 -4.215 2.579 C 3.924 31.093 0 35.017 0 39.84 v 10.32 c 0 4.822 3.924 8.746 8.748 8.747 c 0 0 0.001 0 0.001 0 c 1.778 0 3.413 1.024 4.266 2.673 c 0.249 0.481 0.51 0.96 0.784 1.434 c 0.274 0.475 0.557 0.939 0.85 1.396 c 1.001 1.563 1.071 3.491 0.181 5.032 c -2.412 4.177 -0.976 9.537 3.201 11.949 l 8.938 5.16 c 4.176 2.411 9.537 0.975 11.948 -3.202 c 0.004 -0.007 0.008 -0.014 0.012 -0.021 c 0.893 -1.531 2.547 -2.428 4.329 -2.34 c 1.153 0.056 2.329 0.056 3.496 0.001 c 1.79 -0.088 3.428 0.812 4.318 2.344 c 0.004 0.005 0.007 0.011 0.01 0.017 c 1.619 2.803 4.565 4.372 7.591 4.371 c 1.482 0 2.984 -0.377 4.358 -1.169 l 8.938 -5.16 c 4.17 -2.408 5.607 -7.755 3.213 -11.929 c -0.005 -0.008 -0.009 -0.015 -0.013 -0.022 c -0.89 -1.541 -0.844 -3.43 0.121 -4.928 c 0.631 -0.979 1.219 -1.998 1.748 -3.027 c 0.817 -1.591 2.432 -2.579 4.215 -2.579 c 4.823 0 8.747 -3.924 8.747 -8.746 V 39.84 C 90 35.017 86.076 31.093 81.253 31.093 z M 86 50.16 c 0 2.617 -2.13 4.746 -4.75 4.746 c -3.287 0 -6.264 1.82 -7.77 4.751 c -0.471 0.914 -0.993 1.819 -1.554 2.69 c -1.775 2.757 -1.864 6.23 -0.233 9.073 c 0.004 0.007 0.008 0.014 0.012 0.021 c 1.309 2.267 0.53 5.176 -1.736 6.484 l -8.938 5.16 c -2.262 1.306 -5.164 0.533 -6.476 -1.722 c -0.003 -0.006 -0.007 -0.012 -0.01 -0.018 c -1.642 -2.844 -4.703 -4.511 -7.984 -4.354 c -1.038 0.052 -2.083 0.05 -3.109 -0.001 c -3.291 -0.147 -6.355 1.509 -7.999 4.354 c -0.003 0.007 -0.007 0.014 -0.011 0.021 c -1.314 2.253 -4.215 3.024 -6.475 1.72 l -8.937 -5.16 c -2.267 -1.309 -3.046 -4.218 -1.737 -6.484 c 1.641 -2.841 1.534 -6.362 -0.277 -9.19 c -0.259 -0.404 -0.511 -0.818 -0.754 -1.238 c -0.243 -0.421 -0.475 -0.845 -0.695 -1.271 c -1.543 -2.983 -4.54 -4.836 -7.821 -4.836 C 6.129 54.906 4 52.777 4 50.16 V 39.84 c 0 -2.618 2.129 -4.747 4.75 -4.747 c 3.286 0 6.263 -1.82 7.769 -4.75 c 0.474 -0.921 0.997 -1.827 1.554 -2.692 c 1.78 -2.764 1.864 -6.249 0.221 -9.094 c -0.634 -1.098 -0.802 -2.377 -0.474 -3.602 c 0.328 -1.225 1.114 -2.249 2.212 -2.883 l 8.937 -5.16 c 1.098 -0.634 2.375 -0.802 3.602 -0.474 c 1.225 0.329 2.249 1.115 2.884 2.213 c 1.643 2.845 4.713 4.512 7.986 4.354 c 1.03 -0.05 2.075 -0.05 3.107 0 c 3.282 0.161 6.337 -1.498 7.983 -4.328 c 0.006 -0.009 0.012 -0.019 0.018 -0.028 c 0.634 -1.098 1.657 -1.884 2.882 -2.212 c 1.226 -0.328 2.503 -0.16 3.602 0.474 l 8.938 5.16 c 2.267 1.309 3.046 4.218 1.738 6.484 c -1.642 2.841 -1.536 6.363 0.277 9.193 c 0.26 0.404 0.51 0.816 0.753 1.237 c 0.243 0.42 0.475 0.844 0.695 1.27 c 1.542 2.982 4.538 4.835 7.82 4.835 c 2.617 0 4.747 2.129 4.747 4.747 V 50.16 z" style="stroke: none; stroke-width: 1; stroke-dasharray: none; stroke-linecap: butt; stroke-linejoin: miter; stroke-miterlimit: 10; fill: url(#SVGID_6); fill-rule: nonzero; opacity: 1;" transform=" matrix(1 0 0 1 0 0) " stroke-linecap="round" />
	<linearGradient id="SVGID_7" gradientUnits="userSpaceOnUse" x1="33.4856" y1="78.7946" x2="33.4856" y2="12.0418">
<stop offset="0%" style="stop-color:rgb(0,94,208);stop-opacity: 1"/>
<stop offset="100%" style="stop-color:rgb(48,186,255);stop-opacity: 1"/>
</linearGradient>
<path d="M 34.479 35.182 h -1.985 c -2.962 0 -5.372 2.41 -5.372 5.372 v 12.265 c 0 1.104 0.896 2 2 2 s 2 -0.896 2 -2 V 47 h 4.728 v 5.818 c 0 1.104 0.896 2 2 2 s 2 -0.896 2 -2 V 40.553 C 39.85 37.591 37.44 35.182 34.479 35.182 z M 31.122 43 v -2.447 c 0 -0.756 0.615 -1.372 1.372 -1.372 h 1.985 c 0.743 0 1.371 0.628 1.371 1.372 V 43 H 31.122 z" style="stroke: none; stroke-width: 1; stroke-dasharray: none; stroke-linecap: butt; stroke-linejoin: miter; stroke-miterlimit: 10; fill: url(#SVGID_7); fill-rule: nonzero; opacity: 1;" transform=" matrix(1 0 0 1 0 0) " stroke-linecap="round" />
	<linearGradient id="SVGID_8" gradientUnits="userSpaceOnUse" x1="49.6252" y1="78.7946" x2="49.6252" y2="12.0418">
<stop offset="0%" style="stop-color:rgb(0,94,208);stop-opacity: 1"/>
<stop offset="100%" style="stop-color:rgb(48,186,255);stop-opacity: 1"/>
</linearGradient>
<path d="M 50.821 35.182 h -5.382 c -1.104 0 -2 0.896 -2 2 V 45 v 7.818 c 0 1.104 0.896 2 2 2 c 1.105 0 2 -0.896 2 -2 V 47 h 3.382 c 2.752 0 4.99 -2.238 4.99 -4.989 v -1.839 C 55.812 37.42 53.573 35.182 50.821 35.182 z M 51.812 42.011 c 0 0.545 -0.444 0.989 -0.99 0.989 h -3.383 v -3.818 h 3.383 c 0.546 0 0.99 0.444 0.99 0.99 V 42.011 z" style="stroke: none; stroke-width: 1; stroke-dasharray: none; stroke-linecap: butt; stroke-linejoin: miter; stroke-miterlimit: 10; fill: url(#SVGID_8); fill-rule: nonzero; opacity: 1;" transform=" matrix(1 0 0 1 0 0) " stroke-linecap="round" />
	<linearGradient id="SVGID_9" gradientUnits="userSpaceOnUse" x1="60.8779" y1="78.7946" x2="60.8779" y2="12.0418">
<stop offset="0%" style="stop-color:rgb(0,94,208);stop-opacity: 1"/>
<stop offset="100%" style="stop-color:rgb(48,186,255);stop-opacity: 1"/>
</linearGradient>
<path d="M 60.878 35.182 c -1.104 0 -2 0.896 -2 2 v 15.637 c 0 1.104 0.896 2 2 2 s 2 -0.896 2 -2 V 37.182 C 62.878 36.077 61.982 35.182 60.878 35.182 z" style="stroke: none; stroke-width: 1; stroke-dasharray: none; stroke-linecap: butt; stroke-linejoin: miter; stroke-miterlimit: 10; fill: url(#SVGID_9); fill-rule: nonzero; opacity: 1;" transform=" matrix(1 0 0 1 0 0) " stroke-linecap="round" />
</g>
</svg>